<?xml version="1.0" standalone="no"?>
<!DOCTYPE svg PUBLIC "-//W3C//DTD SVG 20010904//EN"
 "http://www.w3.org/TR/2001/REC-SVG-20010904/DTD/svg10.dtd">
<svg version="1.0" xmlns="http://www.w3.org/2000/svg"
 width="699.000000pt" height="841.000000pt" viewBox="0 0 699.000000 841.000000"
 preserveAspectRatio="xMidYMid meet">
<metadata>
Created by potrace 1.15, written by Peter Selinger 2001-2017
</metadata>
<g transform="translate(0.000000,841.000000) scale(0.100000,-0.100000)"
fill="#000000" stroke="none">
<path d="M1937 7893 c-4 -3 -7 -1425 -7 -3159 l0 -3154 -372 -2 c-205 -2 -456
-1 -558 2 l-185 5 -2 2163 c-2 1190 1 2171 6 2179 6 12 24 -6 79 -78 490 -643
540 -706 577 -723 43 -21 127 -20 168 0 79 41 120 128 97 209 -12 43 -56 104
-350 490 -166 218 -287 377 -406 535 -60 80 -112 147 -115 150 -4 4 -221 288
-401 527 -16 20 -28 32 -28 27 -5 -177 3 -5851 8 -5856 5 -5 424 -7 933 -6
l924 3 3 2783 c1 1724 6 2782 11 2780 6 -2 67 -80 138 -174 70 -95 138 -185
150 -200 41 -54 568 -759 583 -780 8 -12 123 -164 255 -339 132 -174 249 -329
259 -344 53 -70 1033 -1378 1043 -1391 7 -8 122 -161 256 -341 133 -179 257
-343 273 -365 58 -74 419 -555 434 -577 20 -30 755 -1010 800 -1067 19 -25 40
-52 45 -61 18 -28 135 -183 159 -211 13 -14 27 -36 31 -47 3 -12 14 -21 23
-21 16 0 17 192 15 2962 -2 1630 -5 2969 -8 2976 -7 19 -1838 18 -1854 -2 -17
-20 -15 -2210 2 -2274 33 -127 193 -181 291 -100 76 63 70 -17 76 1048 l5 955
555 0 555 0 3 -2214 c1 -1218 -2 -2219 -7 -2224 -4 -4 -44 40 -88 100 -44 59
-120 161 -169 225 -49 65 -132 175 -184 245 -52 70 -100 135 -107 143 -7 8
-189 251 -405 540 -217 289 -424 566 -462 615 -261 348 -426 568 -802 1070
-234 314 -437 584 -450 600 -28 37 -1072 1429 -1241 1655 -68 91 -139 185
-158 210 -19 25 -80 106 -135 180 -55 74 -106 142 -113 150 -6 9 -39 51 -71
95 -73 99 -71 97 -79 88z"/>
<path d="M2605 3979 c-79 -39 -122 -135 -96 -217 6 -21 50 -89 97 -152 78
-103 119 -157 294 -385 25 -33 111 -145 190 -250 79 -104 160 -211 179 -236
20 -25 46 -59 58 -75 12 -16 53 -69 90 -119 38 -49 112 -146 164 -215 53 -69
135 -177 184 -240 48 -63 125 -164 171 -225 45 -60 109 -144 141 -186 164
-213 210 -273 228 -299 11 -16 129 -172 263 -347 134 -175 253 -331 265 -347
12 -16 56 -73 97 -127 41 -53 135 -176 209 -273 73 -97 137 -176 142 -176 5 0
9 482 9 1128 l0 1127 -23 39 c-12 22 -39 52 -59 69 -32 26 -45 30 -101 30 -51
0 -71 -6 -103 -26 -94 -59 -95 -66 -94 -710 1 -298 -2 -543 -7 -544 -4 -1 -56
62 -115 140 -115 153 -277 366 -398 524 -42 54 -144 188 -228 298 -83 110
-170 225 -193 255 -23 30 -92 120 -153 200 -60 80 -196 258 -301 395 -104 138
-199 262 -210 276 -25 34 -183 241 -289 379 -187 245 -209 271 -247 290 -48
25 -112 25 -164 -1z"/>
</g>
</svg>
